<svg width="43" height="17" viewBox="0 0 43 17" fill="none" xmlns="http://www.w3.org/2000/svg">
<path d="M0.589844 16V0.359375H5.20898C6.59115 0.359375 7.81576 0.667318 8.88281 1.2832C9.95703 1.89909 10.7878 2.77279 11.375 3.9043C11.9622 5.03581 12.2559 6.33203 12.2559 7.79297V8.57715C12.2559 10.0596 11.9587 11.363 11.3643 12.4873C10.777 13.6117 9.93555 14.4782 8.83984 15.0869C7.7513 15.6956 6.50163 16 5.09082 16H0.589844ZM3.30762 2.55078V13.8301H5.08008C6.50521 13.8301 7.59733 13.3861 8.35645 12.498C9.12272 11.6029 9.51302 10.321 9.52734 8.65234V7.78223C9.52734 6.08496 9.15853 4.78874 8.4209 3.89355C7.68327 2.99837 6.61263 2.55078 5.20898 2.55078H3.30762ZM27.4453 8.58789C27.4453 10.1204 27.1803 11.4668 26.6504 12.627C26.1204 13.7799 25.3613 14.668 24.373 15.291C23.3919 15.9069 22.2604 16.2148 20.9785 16.2148C19.7109 16.2148 18.5794 15.9069 17.584 15.291C16.5957 14.668 15.8294 13.7835 15.2852 12.6377C14.748 11.4919 14.4759 10.1706 14.4688 8.67383V7.79297C14.4688 6.26758 14.7373 4.92122 15.2744 3.75391C15.8187 2.58659 16.5814 1.69499 17.5625 1.0791C18.5508 0.456055 19.6823 0.144531 20.957 0.144531C22.2318 0.144531 23.3597 0.452474 24.3408 1.06836C25.3291 1.67708 26.0918 2.55794 26.6289 3.71094C27.166 4.85677 27.4382 6.19238 27.4453 7.71777V8.58789ZM24.7275 7.77148C24.7275 6.03841 24.3981 4.70996 23.7393 3.78613C23.0876 2.8623 22.1602 2.40039 20.957 2.40039C19.7826 2.40039 18.8623 2.8623 18.1963 3.78613C17.5374 4.7028 17.2008 6.0026 17.1865 7.68555V8.58789C17.1865 10.3066 17.5195 11.6351 18.1855 12.5732C18.8587 13.5114 19.7897 13.9805 20.9785 13.9805C22.1816 13.9805 23.1055 13.5221 23.75 12.6055C24.4017 11.6888 24.7275 10.3496 24.7275 8.58789V7.77148ZM42.1406 13.9697C41.5749 14.7074 40.7907 15.266 39.7881 15.6455C38.7855 16.0251 37.6468 16.2148 36.3721 16.2148C35.0615 16.2148 33.9014 15.9176 32.8916 15.3232C31.8818 14.7288 31.1012 13.8802 30.5498 12.7773C30.0055 11.6673 29.7227 10.3747 29.7012 8.89941V7.6748C29.7012 5.31152 30.2669 3.46745 31.3984 2.14258C32.5299 0.810547 34.109 0.144531 36.1357 0.144531C37.876 0.144531 39.2581 0.574219 40.2822 1.43359C41.3063 2.29297 41.9222 3.5319 42.1299 5.15039H39.4658C39.165 3.26693 38.0729 2.3252 36.1895 2.3252C34.972 2.3252 34.0446 2.76562 33.4072 3.64648C32.777 4.52018 32.4512 5.80566 32.4297 7.50293V8.70605C32.4297 10.3962 32.7842 11.7103 33.4932 12.6484C34.2093 13.5794 35.2012 14.0449 36.4688 14.0449C37.8581 14.0449 38.8464 13.7298 39.4336 13.0996V10.0381H36.2109V7.97559H42.1406V13.9697Z" fill="black"/>
</svg>
